<svg xmlns="http://www.w3.org/2000/svg" xmlns:xlink="http://www.w3.org/1999/xlink" width="1920" zoomAndPan="magnify" viewBox="0 0 1440 809.999993" height="1080" preserveAspectRatio="xMidYMid meet" version="1.0"><defs><clipPath id="86a4af7467"><path d="M 49 175.5 L 1405 175.5 L 1405 439.5 L 49 439.5 Z M 49 175.5 " clip-rule="nonzero"/></clipPath></defs><g clip-path="url(#86a4af7467)"><path fill="#ffffff" d="M 199.859375 285.285156 C 202.132812 285.464844 204.359375 284.746094 206.105469 283.265625 C 207.847656 281.777344 208.914062 279.707031 209.09375 277.410156 C 209.277344 275.132812 208.566406 272.90625 207.078125 271.167969 C 205.59375 269.414062 203.519531 268.363281 201.234375 268.167969 C 201 268.15625 200.765625 268.140625 200.535156 268.140625 C 198.5 268.140625 196.554688 268.859375 194.988281 270.1875 L 194.984375 270.203125 C 191.386719 273.25 190.949219 278.679688 194.019531 282.289062 C 195.5 284.027344 197.578125 285.089844 199.859375 285.285156 Z M 294.082031 197.082031 C 292.597656 195.339844 290.523438 194.273438 288.242188 194.097656 C 288.003906 194.082031 287.769531 194.066406 287.535156 194.066406 C 285.503906 194.066406 283.558594 194.789062 281.992188 196.109375 C 280.246094 197.605469 279.183594 199.675781 279 201.953125 C 278.816406 204.246094 279.535156 206.460938 281.015625 208.214844 C 282.507812 209.953125 284.578125 211.019531 286.863281 211.199219 C 289.125 211.390625 291.363281 210.675781 293.113281 209.179688 C 296.710938 206.113281 297.148438 200.6875 294.082031 197.082031 Z M 388.164062 233.605469 C 429.136719 281.761719 423.304688 354.277344 375.175781 395.265625 C 353.640625 413.59375 327.234375 422.5625 300.949219 422.5625 C 268.484375 422.5625 236.214844 408.875 213.566406 382.265625 C 193.9375 359.195312 184.359375 329.4375 186.582031 299.445312 C 184.230469 297.992188 182.085938 296.1875 180.238281 294.015625 C 170.707031 282.8125 172.066406 265.945312 183.265625 256.414062 C 194.460938 246.878906 211.324219 248.234375 220.855469 259.4375 C 225.472656 264.867188 227.695312 271.761719 227.128906 278.863281 C 226.558594 285.964844 223.257812 292.429688 217.828125 297.042969 C 213.96875 300.332031 209.347656 302.386719 204.449219 303.109375 C 203.226562 327.570312 211.3125 351.691406 227.347656 370.539062 C 261.851562 411.082031 322.90625 416.003906 363.449219 381.476562 C 403.988281 346.972656 408.898438 285.894531 374.394531 245.335938 C 358.574219 226.75 336.445312 214.96875 312.484375 212.066406 C 310.945312 216.15625 308.394531 219.929688 304.835938 222.96875 C 299.96875 227.113281 293.914062 229.324219 287.59375 229.324219 C 286.871094 229.324219 286.140625 229.292969 285.414062 229.238281 C 278.3125 228.660156 271.863281 225.359375 267.246094 219.941406 C 262.625 214.511719 260.398438 207.605469 260.964844 200.503906 C 261.535156 193.40625 264.84375 186.953125 270.265625 182.339844 C 275.691406 177.707031 282.613281 175.484375 289.6875 176.050781 C 296.792969 176.632812 303.242188 179.9375 307.855469 185.347656 C 310.066406 187.945312 311.664062 190.863281 312.714844 193.902344 C 341.910156 196.941406 368.957031 211.03125 388.164062 233.605469 Z M 1234.6875 370.386719 C 1234.632812 368.09375 1233.695312 365.964844 1232.039062 364.375 C 1230.4375 362.84375 1228.339844 362 1226.125 362 C 1226.058594 362 1225.988281 362 1225.921875 362 C 1221.195312 362.109375 1217.425781 366.046875 1217.539062 370.785156 C 1217.59375 373.078125 1218.53125 375.207031 1220.1875 376.796875 C 1221.84375 378.367188 1224.027344 379.242188 1226.320312 379.15625 C 1231.042969 379.046875 1234.800781 375.109375 1234.6875 370.386719 Z M 1214.902344 256.523438 C 1214.953125 258.816406 1215.894531 260.941406 1217.550781 262.535156 C 1219.207031 264.109375 1221.375 264.980469 1223.667969 264.898438 C 1225.960938 264.855469 1228.101562 263.898438 1229.675781 262.242188 C 1231.261719 260.585938 1232.105469 258.417969 1232.050781 256.125 C 1231.941406 251.464844 1228.117188 247.738281 1223.472656 247.738281 C 1223.40625 247.738281 1223.335938 247.738281 1223.285156 247.753906 C 1218.546875 247.851562 1214.789062 251.785156 1214.902344 256.523438 Z M 1244.535156 351.292969 C 1249.683594 356.210938 1252.613281 362.84375 1252.78125 369.972656 C 1253.109375 384.671875 1241.425781 396.910156 1226.738281 397.253906 C 1226.527344 397.253906 1226.304688 397.253906 1226.101562 397.253906 C 1222.964844 397.253906 1219.914062 396.6875 1217.027344 395.652344 C 1196.265625 416.402344 1168.289062 428.515625 1138.664062 429.195312 C 1137.769531 429.222656 1136.871094 429.222656 1135.972656 429.222656 C 1073.976562 429.222656 1022.851562 379.527344 1021.40625 317.199219 C 1019.953125 253.980469 1070.167969 201.359375 1133.359375 199.910156 C 1163.664062 199.234375 1192.777344 210.535156 1214.652344 231.160156 C 1217.230469 230.265625 1219.980469 229.722656 1222.851562 229.652344 C 1237.503906 229.335938 1249.796875 240.996094 1250.128906 255.707031 C 1250.292969 262.824219 1247.683594 269.59375 1242.769531 274.746094 C 1237.847656 279.898438 1231.207031 282.824219 1224.097656 282.992188 C 1223.878906 282.992188 1223.667969 282.992188 1223.460938 282.992188 C 1216.566406 282.992188 1210.066406 280.394531 1205.066406 275.613281 C 1199.914062 270.699219 1196.984375 264.066406 1196.824219 256.9375 C 1196.699219 251.757812 1198.089844 246.894531 1200.5625 242.734375 C 1182.332031 226.351562 1158.5 217.386719 1133.792969 217.992188 C 1080.570312 219.222656 1038.265625 263.542969 1039.492188 316.785156 C 1040.707031 369.265625 1083.765625 411.140625 1135.988281 411.140625 C 1136.730469 411.140625 1137.492188 411.125 1138.253906 411.113281 C 1162.644531 410.546875 1185.714844 400.789062 1203.074219 384.019531 C 1200.824219 380.164062 1199.570312 375.789062 1199.460938 371.203125 C 1199.117188 356.5 1210.796875 344.261719 1225.507812 343.917969 C 1232.660156 343.75 1239.386719 346.371094 1244.535156 351.292969 Z M 185.671875 413.460938 C 185.855469 411.167969 185.144531 408.953125 183.65625 407.199219 C 181.960938 405.210938 179.542969 404.1875 177.117188 404.1875 C 175.148438 404.1875 173.179688 404.863281 171.566406 406.234375 C 167.960938 409.300781 167.523438 414.726562 170.589844 418.332031 C 172.078125 420.078125 174.148438 421.140625 176.4375 421.316406 C 178.707031 421.5 180.9375 420.785156 182.683594 419.304688 C 184.425781 417.808594 185.488281 415.738281 185.671875 413.460938 Z M 264.109375 330.101562 C 262.078125 330.101562 260.132812 330.820312 258.570312 332.160156 C 256.820312 333.636719 255.757812 335.710938 255.574219 338.003906 C 255.390625 340.28125 256.109375 342.507812 257.59375 344.246094 C 260.664062 347.851562 266.089844 348.28125 269.6875 345.226562 L 269.6875 345.210938 C 273.285156 342.164062 273.722656 336.734375 270.660156 333.125 C 269.175781 331.386719 267.097656 330.324219 264.8125 330.128906 C 264.578125 330.113281 264.347656 330.101562 264.109375 330.101562 Z M 197.425781 395.472656 C 202.050781 400.902344 204.273438 407.808594 203.707031 414.910156 C 203.132812 422.007812 199.828125 428.460938 194.40625 433.078125 C 189.539062 437.21875 183.488281 439.445312 177.164062 439.445312 C 176.441406 439.445312 175.714844 439.417969 174.984375 439.363281 C 167.886719 438.78125 161.433594 435.476562 156.816406 430.046875 C 154.605469 427.46875 153.007812 424.550781 151.957031 421.511719 C 122.761719 418.472656 95.714844 404.382812 76.507812 381.808594 C 35.535156 333.652344 41.367188 261.136719 89.5 220.152344 C 137.632812 179.175781 210.132812 185.003906 251.105469 233.152344 C 270.742188 256.21875 280.316406 285.976562 278.085938 315.96875 C 280.445312 317.421875 282.59375 319.230469 284.433594 321.398438 C 293.964844 332.601562 292.609375 349.46875 281.410156 359 C 276.40625 363.269531 270.261719 365.355469 264.148438 365.355469 C 256.59375 365.355469 249.085938 362.167969 243.820312 355.976562 C 239.203125 350.550781 236.976562 343.652344 237.542969 336.550781 C 238.113281 329.449219 241.421875 322.984375 246.84375 318.371094 C 250.703125 315.085938 255.328125 313.039062 260.222656 312.320312 C 261.449219 287.84375 253.359375 263.722656 237.332031 244.878906 C 202.820312 204.335938 141.769531 199.414062 101.222656 233.9375 C 60.683594 268.441406 55.773438 329.519531 90.285156 370.078125 C 106.097656 388.664062 128.222656 400.445312 152.1875 403.347656 C 153.726562 399.257812 156.28125 395.484375 159.835938 392.445312 C 171.035156 382.917969 187.898438 384.269531 197.425781 395.472656 Z M 1236.140625 199.996094 L 1236.140625 222.816406 L 1308.035156 222.816406 L 1308.035156 418.765625 L 1332.21875 418.765625 L 1332.21875 222.816406 L 1404.113281 222.816406 L 1404.113281 199.996094 Z M 893.785156 319.699219 L 1010.660156 319.699219 L 1010.660156 297.195312 L 893.785156 297.195312 L 893.785156 222.5 L 1024.425781 222.5 L 1024.425781 199.996094 L 869.617188 199.996094 L 869.617188 418.765625 L 1025.957031 418.765625 L 1025.957031 396.261719 L 893.785156 396.261719 Z M 809.953125 375.320312 L 675.03125 199.996094 L 652.390625 199.996094 L 652.390625 418.765625 L 675.953125 418.765625 L 675.953125 239.378906 L 814.234375 418.765625 L 833.515625 418.765625 L 833.515625 199.996094 L 809.953125 199.996094 Z M 592.730469 199.996094 L 616.289062 199.996094 L 616.289062 418.765625 L 597.015625 418.765625 L 458.726562 239.378906 L 458.726562 418.765625 L 435.167969 418.765625 L 435.167969 199.996094 L 457.808594 199.996094 L 592.730469 375.320312 L 592.730469 199.996094 " fill-opacity="1" fill-rule="nonzero"/></g></svg>
